<svg width="24" height="24" viewBox="0 0 24 24" fill="none" xmlns="http://www.w3.org/2000/svg">
<path opacity="0.5" d="M11.7188 6.375C10.6062 6.375 9.51869 6.7049 8.59367 7.32298C7.66864 7.94107 6.94767 8.81957 6.52193 9.84741C6.09619 10.8752 5.98479 12.0062 6.20183 13.0974C6.41888 14.1885 6.9546 15.1908 7.74127 15.9775C8.52794 16.7641 9.53022 17.2999 10.6214 17.5169C11.7125 17.734 12.8435 17.6226 13.8713 17.1968C14.8992 16.7711 15.7777 16.0501 16.3958 15.1251C17.0138 14.2001 17.3437 13.1125 17.3438 12C17.3437 10.5082 16.7511 9.07742 15.6962 8.02252C14.6413 6.96763 13.2106 6.375 11.7188 6.375ZM11.7188 15.75C10.9771 15.75 10.252 15.5301 9.63536 15.118C9.01868 14.706 8.53803 14.1203 8.2542 13.4351C7.97037 12.7498 7.89611 11.9958 8.0408 11.2684C8.1855 10.541 8.54265 9.8728 9.0671 9.34835C9.59155 8.8239 10.2597 8.46675 10.9872 8.32205C11.7146 8.17736 12.4686 8.25162 13.1538 8.53545C13.839 8.81928 14.4247 9.29993 14.8368 9.91661C15.2488 10.5333 15.4688 11.2583 15.4688 12C15.4657 12.9936 15.0696 13.9456 14.367 14.6482C13.6644 15.3508 12.7124 15.7469 11.7188 15.75ZM16.875 0.28125H6.5625C4.82202 0.28125 3.15282 0.972654 1.92211 2.20336C0.691404 3.43407 0 5.10327 0 6.84375V17.1562C0 18.8967 0.691404 20.5659 1.92211 21.7966C3.15282 23.0273 4.82202 23.7188 6.5625 23.7188H16.875C18.6155 23.7188 20.2847 23.0273 21.5154 21.7966C22.7461 20.5659 23.4375 18.8967 23.4375 17.1562V6.84375C23.4375 5.10327 22.7461 3.43407 21.5154 2.20336C20.2847 0.972654 18.6155 0.28125 16.875 0.28125ZM21.5625 17.1562C21.5625 17.7718 21.4413 18.3814 21.2057 18.9501C20.9701 19.5188 20.6248 20.0355 20.1896 20.4708C19.7543 20.9061 19.2375 21.2514 18.6688 21.4869C18.1001 21.7225 17.4906 21.8438 16.875 21.8438H6.5625C5.94693 21.8438 5.33739 21.7225 4.76867 21.4869C4.19996 21.2514 3.68321 20.9061 3.24794 20.4708C2.81266 20.0355 2.46738 19.5188 2.23181 18.9501C1.99625 18.3814 1.875 17.7718 1.875 17.1562V6.84375C1.875 5.60055 2.36886 4.40826 3.24794 3.52919C4.12701 2.65011 5.3193 2.15625 6.5625 2.15625H16.875C17.4906 2.15625 18.1001 2.2775 18.6688 2.51306C19.2375 2.74863 19.7543 3.09391 20.1896 3.52919C20.6248 3.96446 20.9701 4.48121 21.2057 5.04992C21.4413 5.61864 21.5625 6.22818 21.5625 6.84375V17.1562ZM19.2188 5.90625C19.2188 6.18438 19.1363 6.45626 18.9818 6.68752C18.8272 6.91878 18.6076 7.09902 18.3506 7.20546C18.0937 7.31189 17.8109 7.33974 17.5382 7.28548C17.2654 7.23122 17.0148 7.09729 16.8181 6.90062C16.6215 6.70395 16.4875 6.45338 16.4333 6.1806C16.379 5.90781 16.4069 5.62506 16.5133 5.3681C16.6197 5.11114 16.8 4.89152 17.0312 4.737C17.2625 4.58247 17.5344 4.5 17.8125 4.5C18.1855 4.5 18.5431 4.64816 18.8069 4.91188C19.0706 5.1756 19.2188 5.53329 19.2188 5.90625Z" fill="#F39120"/>
</svg>
