<svg width="138" height="34" viewBox="0 0 138 34" fill="none" xmlns="http://www.w3.org/2000/svg">
<path d="M55.5134 7.20263C57.1367 7.18929 58.7378 7.5805 60.172 8.34093C61.6062 9.10136 62.8285 10.2071 63.7283 11.5582L62.4248 12.5117C60.6856 10.0726 58.2247 8.75507 55.5134 8.75507C50.9027 8.75507 47.5381 12.2737 47.5381 17.0104C47.5381 21.7471 50.9728 25.2549 55.5974 25.2549C58.3741 25.2549 60.8412 23.9793 62.5974 21.4982L63.8419 22.4517C62.929 23.7962 61.6996 24.8956 60.262 25.6532C58.8243 26.4108 57.2225 26.8034 55.5974 26.7964C50.0472 26.7964 45.8425 22.5964 45.8425 17.012C45.8425 11.4275 49.9912 7.20263 55.5134 7.20263Z" fill="white"/>
<path d="M69.6223 26.518V7.48886H71.3039V15.9355H83.8634V7.48886H85.5465V26.518H83.8588V17.4771H71.2992V26.518H69.6223Z" fill="white"/>
<path d="M93.0769 7.48886H94.7585V26.518H93.0769V7.48886Z" fill="white"/>
<path d="M102.289 7.48886H103.97V18.6609L114.335 7.48886H116.494L109.402 15.08L117.042 26.518H114.925L108.211 16.3695L103.977 20.8542V26.518H102.289V7.48886Z" fill="white"/>
<path d="M121.838 7.48886H123.505V19.5849C123.505 22.9355 125.944 25.2346 129.869 25.2346C133.822 25.2346 136.233 22.9495 136.233 19.5849V7.48886H137.902V19.5849C137.902 23.9171 134.845 26.8042 129.869 26.8042C124.949 26.8042 121.838 23.9031 121.838 19.5849V7.48886Z" fill="white"/>
<path d="M16.7333 11.9315C14.7461 9.66245 13.6515 6.7484 13.6533 3.73217C13.6533 3.57662 13.6533 3.42106 13.6627 3.26551C13.7404 1.15617 15.4267 0.0548401 17.0507 0.0548401C18.6747 0.0548401 20.3593 1.15928 20.4371 3.26862C20.4449 3.42417 20.4464 3.57973 20.4464 3.73528C20.4483 6.75151 19.3536 9.66556 17.3664 11.9346L17.0553 12.2971L16.7333 11.9315ZM19.1833 3.73217C19.1833 3.59373 19.1833 3.4584 19.174 3.30906C19.1164 1.73328 17.8113 1.31329 17.0444 1.31329C16.2775 1.31329 14.9833 1.73328 14.9258 3.31684C14.9258 3.45684 14.9164 3.59373 14.9164 3.73217C14.9134 6.09323 15.6584 8.39456 17.0444 10.306C18.4338 8.39559 19.1825 6.09434 19.1833 3.73217Z" fill="#F39120"/>
<path d="M13.2427 13.6411C10.2327 13.4407 7.39793 12.1538 5.26578 10.0198C5.15482 9.90985 5.04593 9.7963 4.93911 9.67911C3.50178 8.13289 3.91556 6.162 5.06356 5.01245C6.21156 3.86289 8.184 3.45689 9.73023 4.88956C9.84534 4.99534 9.95734 5.10267 10.0693 5.21467C12.2028 7.34706 13.4892 10.1818 13.6891 13.1916L13.7202 13.6707L13.2427 13.6411ZM9.17645 6.11067C9.07845 6.01267 8.982 5.91778 8.86534 5.81667C7.70956 4.74334 6.49001 5.36867 5.95178 5.90689C5.41356 6.44511 4.78667 7.66467 5.86623 8.82823C5.95956 8.93089 6.05601 9.02889 6.15401 9.12689C7.82295 10.7977 9.97841 11.8967 12.3109 12.266C11.9416 9.93494 10.8445 7.7804 9.17645 6.11067Z" fill="#F39120"/>
<path d="M11.9827 17.3168C9.71319 19.3047 6.79881 20.4003 3.78183 20.4C3.62627 20.4 3.47071 20.4 3.31516 20.3906C1.20583 20.3128 0.104492 18.6282 0.104492 17.0026C0.104492 15.3771 1.20894 13.694 3.31982 13.6162C3.47538 13.6084 3.63094 13.6068 3.78649 13.6068C6.80307 13.6056 9.71741 14.7001 11.9874 16.6868L12.3483 16.998L11.9827 17.3168ZM3.78183 14.8668C3.64494 14.8668 3.50805 14.8668 3.35871 14.8762C1.78294 14.9337 1.36294 16.2388 1.36294 16.9995C1.36294 17.7602 1.78138 19.0668 3.36805 19.1244C3.50649 19.1244 3.64338 19.1337 3.78183 19.1337C6.1436 19.1352 8.44506 18.388 10.3556 16.9995C8.44458 15.6122 6.14333 14.8656 3.78183 14.8668Z" fill="#F39120"/>
<path d="M13.6907 20.8075C13.4907 23.8173 12.2044 26.652 10.0709 28.7844C9.95891 28.8964 9.84691 29.0053 9.72869 29.1111C8.18247 30.5484 6.21314 30.1346 5.06202 28.9866C3.91091 27.8386 3.50647 25.8662 4.94069 24.32C5.04491 24.2048 5.1538 24.0928 5.2658 23.9824C7.39698 21.8479 10.2314 20.5608 13.2411 20.3611L13.7202 20.33L13.6907 20.8075ZM6.15558 24.8737C6.05758 24.9717 5.96269 25.0682 5.86313 25.1848C4.7898 26.3406 5.41358 27.5602 5.95336 28.1C6.49314 28.6397 7.70958 29.2635 8.87314 28.184C8.9758 28.0906 9.0738 27.9942 9.1718 27.8962C10.8425 26.2269 11.9419 24.0717 12.3125 21.7393C9.98081 22.1082 7.82566 23.2053 6.15558 24.8737Z" fill="#F39120"/>
<path d="M17.3664 22.0675C19.3531 24.3375 20.4477 27.2518 20.4464 30.2684C20.4464 30.424 20.4464 30.5795 20.4371 30.7351C20.3593 32.8444 18.6747 33.9457 17.0507 33.9457C15.4267 33.9457 13.7404 32.8413 13.6627 30.732C13.6627 30.5764 13.6533 30.4209 13.6533 30.2653C13.6528 27.2498 14.7473 24.3367 16.7333 22.0675L17.0444 21.7066L17.3664 22.0675ZM14.918 30.2684C14.918 30.4053 14.918 30.5422 14.918 30.6915C14.9849 32.2673 16.2884 32.6889 17.0444 32.6889C17.8004 32.6889 19.1102 32.2704 19.1693 30.6853C19.1693 30.5453 19.1771 30.4084 19.1771 30.27C19.1787 27.9079 18.4321 25.6061 17.0444 23.6946C15.6593 25.6064 14.9149 27.9076 14.918 30.2684Z" fill="#F39120"/>
<path d="M20.8586 20.3595C23.8679 20.5584 26.7023 21.8443 28.8339 23.9777C28.9459 24.0882 29.0548 24.2002 29.1622 24.3184C30.5979 25.8646 30.1857 27.8355 29.0362 28.9851C27.8866 30.1346 25.9157 30.5406 24.3695 29.108C24.2544 29.0022 24.1424 28.8933 24.0304 28.7828C21.8959 26.6511 20.6094 23.816 20.4106 20.806L20.3779 20.3268L20.8586 20.3595ZM24.9233 27.89C25.0213 27.988 25.1193 28.0828 25.2344 28.184C26.3917 29.2573 27.6113 28.632 28.1495 28.0937C28.6877 27.5555 29.3146 26.336 28.235 25.1724C28.1402 25.0697 28.0453 24.9717 27.9473 24.8737C26.2778 23.2034 24.1227 22.1041 21.7904 21.7331C22.158 24.0648 23.2547 26.2202 24.9233 27.89Z" fill="#F39120"/>
<path d="M22.1187 16.6838C24.3878 14.6966 27.3018 13.6019 30.3181 13.6038C30.4736 13.6038 30.6292 13.6038 30.7847 13.6131C32.8941 13.6909 33.9954 15.3755 33.9954 16.9995C33.9954 18.6235 32.891 20.3098 30.7816 20.3875C30.6261 20.3953 30.4705 20.3969 30.315 20.3969C27.2987 20.3987 24.3847 19.3041 22.1156 17.3169L21.7532 17.0058L22.1187 16.6838ZM30.3181 19.1338C30.4565 19.1338 30.5918 19.1338 30.7412 19.1244C32.317 19.0669 32.7385 17.7618 32.7385 16.9995C32.7385 16.2373 32.3185 14.9338 30.7334 14.8747C30.5934 14.8747 30.4565 14.8747 30.3181 14.8747C27.9566 14.8736 25.6554 15.6202 23.7443 17.0073C25.6559 18.3928 27.9572 19.1372 30.3181 19.1338Z" fill="#F39120"/>
<path d="M20.4107 13.1931C20.6096 10.183 21.8961 7.3479 24.0305 5.21618C24.1425 5.10418 24.2545 4.99529 24.3712 4.88795C25.9174 3.45218 27.8883 3.86595 29.0379 5.01395C30.1874 6.16195 30.5934 8.1344 29.1608 9.68062C29.0565 9.79573 28.9476 9.90618 28.8356 10.0182C26.7039 12.1519 23.8698 13.4388 20.8603 13.6395L20.3796 13.6706L20.4107 13.1931ZM27.9334 9.12684C28.0314 9.02884 28.1263 8.93084 28.2274 8.81573C29.3008 7.65995 28.6754 6.4404 28.1372 5.90062C27.599 5.36084 26.3794 4.73706 25.2174 5.81662C25.1132 5.90995 25.0152 6.0064 24.9172 6.1044C23.2468 7.77299 22.1478 9.92783 21.7781 12.2597C24.1093 11.892 26.2642 10.7952 27.9334 9.12684Z" fill="#F39120"/>
</svg>
