<svg width="27" height="26" viewBox="0 0 27 26" fill="none" xmlns="http://www.w3.org/2000/svg">
<g id="ic:baseline-whatsapp">
<path id="Vector" opacity="0.5" d="M21.075 5.31907C20.0818 4.31582 18.8988 3.52038 17.5949 2.97912C16.2911 2.43787 14.8925 2.16165 13.4808 2.16657C7.56582 2.16657 2.74499 6.9874 2.74499 12.9024C2.74499 14.7982 3.24333 16.6399 4.17499 18.2649L2.65833 23.8332L8.34582 22.3382C9.91666 23.1941 11.6825 23.6491 13.4808 23.6491C19.3958 23.6491 24.2167 18.8282 24.2167 12.9132C24.2167 10.0424 23.1008 7.3449 21.075 5.31907ZM13.4808 21.8291C11.8775 21.8291 10.3067 21.3957 8.93082 20.5832L8.60582 20.3882L5.22583 21.2766L6.12499 17.9832L5.90833 17.6474C5.01755 16.225 4.54456 14.5807 4.54333 12.9024C4.54333 7.98407 8.55166 3.97574 13.47 3.97574C15.8533 3.97574 18.0958 4.9074 19.775 6.5974C20.6064 7.42503 21.2653 8.40945 21.7135 9.49361C22.1617 10.5778 22.3902 11.7401 22.3858 12.9132C22.4075 17.8316 18.3992 21.8291 13.4808 21.8291ZM18.3775 15.1557C18.1067 15.0257 16.785 14.3757 16.5467 14.2782C16.2975 14.1916 16.1242 14.1482 15.94 14.4082C15.7558 14.6791 15.2467 15.2857 15.095 15.4591C14.9433 15.6432 14.7808 15.6649 14.51 15.5241C14.2392 15.3941 13.3725 15.1016 12.3542 14.1916C11.5525 13.4766 11.0217 12.5991 10.8592 12.3282C10.7075 12.0574 10.8375 11.9166 10.9783 11.7757C11.0975 11.6566 11.2492 11.4616 11.3792 11.3099C11.5092 11.1582 11.5633 11.0391 11.65 10.8657C11.7367 10.6816 11.6933 10.5299 11.6283 10.3999C11.5633 10.2699 11.0217 8.94824 10.805 8.40657C10.5883 7.88657 10.3608 7.95157 10.1983 7.94074H9.67832C9.49416 7.94074 9.21249 8.00574 8.96332 8.27657C8.72499 8.5474 8.03166 9.1974 8.03166 10.5191C8.03166 11.8407 8.99582 13.1191 9.12582 13.2924C9.25583 13.4766 11.0217 16.1849 13.7083 17.3441C14.3475 17.6257 14.8458 17.7882 15.2358 17.9074C15.875 18.1132 16.46 18.0807 16.9258 18.0157C17.4458 17.9399 18.5183 17.3657 18.735 16.7374C18.9625 16.1091 18.9625 15.5782 18.8867 15.4591C18.8108 15.3399 18.6483 15.2857 18.3775 15.1557Z" fill="#F39120"/>
</g>
</svg>
